<svg id="Layer_1" data-name="Layer 1" xmlns="http://www.w3.org/2000/svg" viewBox="0 0 360 360"><defs><style>.cls-1{fill:#5ebe80;}.cls-2{fill:#fff;}</style></defs><title>RO_Certified-Badge_Light-Green</title><path class="cls-1" d="M43.07,129,46,121.75l7.21,2.92-2.91,7.21Z"/><path class="cls-1" d="M74.49,106c3-4.39,1.91-8.13-.82-10.89l3.82-5.55c5.24,5.19,6.57,12.19,1.51,19.55-5.91,8.6-16.31,10.07-25.86,3.5s-11.8-16.73-5.89-25.34c5.06-7.36,12-8.65,18.8-5.58l-3.82,5.55c-3.56-1.56-7.44-1.25-10.46,3.14C48,95.92,50.17,102,57.14,106.8S70.67,111.54,74.49,106Z"/><path class="cls-1" d="M91.09,92.6,67.33,63.86,88,46.79,91.47,51,76.05,63.76l6.63,8L96.32,60.49l3.5,4.23L86.17,76l6.66,8L108.4,71.17l3.5,4.23Z"/><path class="cls-1" d="M117.42,72,102.53,37.79l14.65-6.38c8-3.49,14.31-1.8,17.35,5.19,2.32,5.31.3,9.95-3,12.89l14.55,10-6.94,3-13.37-9.38-7.65,3.34,5.56,12.78Zm6.19-23.83c4.74-2.06,6.28-5.06,4.65-8.8s-4.87-4.65-9.61-2.59l-7.71,3.36,5,11.39Z"/><path class="cls-1" d="M157.54,25.77l-13.27,1.61-.66-5.44L177,17.87l.66,5.44-13.32,1.62,3.85,31.57-6.84.83Z"/><path class="cls-1" d="M190.76,19l6.92.61-3.26,37.13-6.91-.6Z"/><path class="cls-1" d="M213.11,21.64l24.73,7.15-1.52,5.27-18.06-5.22L215.1,39.77l16.21,4.68-1.53,5.27L213.58,45l-4.14,14.35-6.68-1.93Z"/><path class="cls-1" d="M250.7,35l6.17,3.18L239.79,71.28l-6.17-3.18Z"/><path class="cls-1" d="M247.27,75l23.28-29.12,20.93,16.72-3.43,4.29L272.43,54.41l-6.49,8.11,13.83,11.06-3.42,4.28-13.83-11L256,75l15.78,12.62-3.42,4.29Z"/><path class="cls-1" d="M307.08,112.81c-9.21,6.42-19.53,4.59-26-4.62L272.9,96.42l30.57-21.34,8.22,11.77C318.12,96.06,316.24,106.41,307.08,112.81Zm-4.22-29L281.28,98.84l4.34,6.21c4.24,6.08,10.58,6.69,17.39,1.93s8.43-10.91,4.18-17Z"/><path class="cls-1" d="M314.13,122l2.9,7.22-7.22,2.9-2.9-7.22Z"/><path class="cls-1" d="M316.93,231,314,238.25l-7.22-2.92,2.91-7.21Z"/><path class="cls-1" d="M285.51,254c-3,4.39-1.91,8.13.82,10.89l-3.82,5.55c-5.24-5.19-6.57-12.19-1.51-19.55,5.92-8.6,16.31-10.07,25.86-3.5s11.81,16.74,5.89,25.34c-5.06,7.36-12,8.65-18.8,5.58l3.82-5.55c3.56,1.56,7.44,1.25,10.46-3.14,3.82-5.55,1.6-11.63-5.37-16.42S289.33,248.46,285.51,254Z"/><path class="cls-1" d="M268.91,267.4l23.76,28.75L272,313.22,268.53,309l15.41-12.75-6.62-8-13.64,11.28-3.5-4.22L273.83,284,267.17,276,251.6,288.83l-3.5-4.23Z"/><path class="cls-1" d="M242.58,288l14.89,34.17-14.65,6.39c-8,3.48-14.31,1.79-17.35-5.2-2.32-5.31-.29-9.95,3-12.88l-14.55-10,6.94-3,13.37,9.38,7.65-3.34-5.56-12.78Zm-6.19,23.83c-4.74,2.06-6.28,5.07-4.65,8.8s4.87,4.65,9.61,2.59l7.71-3.36-5-11.39Z"/><path class="cls-1" d="M202.46,334.23l13.27-1.61.66,5.44L183,342.13l-.66-5.44,13.32-1.62-3.85-31.56,6.84-.84Z"/><path class="cls-1" d="M169.24,341l-6.92-.61,3.25-37.13,6.92.61Z"/><path class="cls-1" d="M146.89,338.36l-24.73-7.15,1.52-5.26,18.06,5.21,3.16-10.93-16.21-4.68,1.53-5.27,16.2,4.68,4.14-14.35,6.68,1.93Z"/><path class="cls-1" d="M109.3,325l-6.17-3.18,17.08-33.14,6.17,3.19Z"/><path class="cls-1" d="M112.73,285,89.45,314.11,68.52,297.39,72,293.1l15.62,12.49,6.49-8.11L80.23,286.42l3.43-4.28,13.82,11.05L104,285,88.22,272.42l3.42-4.28Z"/><path class="cls-1" d="M52.93,247.19c9.2-6.42,19.52-4.59,25.95,4.62l8.22,11.77L56.53,284.92l-8.22-11.77C41.89,263.94,43.76,253.59,52.93,247.19Zm4.21,29,21.58-15.06L74.39,255C70.14,248.87,63.8,248.27,57,253s-8.43,10.91-4.18,17Z"/><path class="cls-1" d="M45.87,238,43,230.77l7.22-2.9,2.9,7.22Z"/><path class="cls-1" d="M180,360C80.75,360,0,279.25,0,180S80.75,0,180,0,360,80.75,360,180,279.25,360,180,360ZM180,7.55C84.91,7.55,7.55,84.91,7.55,180S84.91,352.45,180,352.45,352.45,275.09,352.45,180,275.09,7.55,180,7.55Z"/><circle class="cls-1" cx="180" cy="180" r="111.47" transform="translate(-74.56 180) rotate(-45)"/><path class="cls-2" d="M214,240.41l-34-22.83a118.94,118.94,0,0,1-17.66-14l-6.5,33h-31L139,164.09c5.83-29.67,24.5-44.5,51.82-44.5,25.73,0,44.37,18.33,44.37,42.66,0,18.83-9.14,33.62-24,41.5l20.17,13.33Zm-9.34-74.66a17.46,17.46,0,0,0-17.33-17.49,17.74,17.74,0,0,0-17.66,18,17.5,17.5,0,1,0,35-.5"/></svg>