<?xml version="1.0" encoding="utf-8"?>
<!-- Generator: Adobe Illustrator 19.0.0, SVG Export Plug-In . SVG Version: 6.00 Build 0)  -->
<svg version="1.1" id="Layer_1" xmlns="http://www.w3.org/2000/svg" xmlns:xlink="http://www.w3.org/1999/xlink" x="0px" y="0px"
	 width="140px" height="66.1px" viewBox="491.5 364 205 66.1" style="enable-background:new 491.5 364 205 66.1;"
	 xml:space="preserve">
<style type="text/css">
	.st0{fill:#FFF;}
</style>
<g id="XMLID_21_">
	<path id="XMLID_35_" class="st0" d="M516.4,411.7l-8.6-5.8c-1.8-1.2-3.3-2.4-4.5-3.6l-1.7,8.4h-7.8l3.6-18.4
		c1.5-7.5,6.2-11.3,13.2-11.3c6.6,0,11.4,4.6,11.4,10.8c0,4.8-2.4,8.6-6.2,10.5l5.1,3.4L516.4,411.7z M514,392.7
		c0-2.4-2-4.4-4.4-4.4c-2.5,0-4.5,2-4.5,4.6c0,2.4,2,4.4,4.4,4.4C512,397.3,514,395.3,514,392.7"/>
	<path id="XMLID_34_" class="st0" d="M534.8,408.2c-1.8,2.1-4,3-6.5,3c-4.3,0-7-2.7-5.8-8.8l2.2-11.3h7.8l-2,9.8
		c-0.5,2.4,0.4,3.4,2,3.4c1.7,0,2.8-1.1,3.2-3.2l2-10h7.8l-3.8,19.5h-7.3L534.8,408.2z"/>
	<path id="XMLID_33_" class="st0" d="M552.3,410.7h-7.8l3.8-19.5h7.2l-0.5,2.5c1.7-2.1,3.9-3.1,6.4-3.1c2.4,0,4.2,1,5.1,2.9
		c1.8-2.1,4.3-2.9,7-2.9c4.4,0,7,2.9,5.7,9.3l-2.1,10.8h-7.8l2-10c0.4-2.2-0.4-3.3-1.7-3.3c-1.5,0-2.5,1.1-2.9,3l-2,10.2H557l2-10
		c0.4-2.2-0.4-3.3-1.7-3.3c-1.5,0-2.5,1.1-2.9,3L552.3,410.7z"/>
	<path id="XMLID_30_" class="st0" d="M594.3,411.2c-2.6,0-5.1-1.1-6.4-3l-0.5,2.5h-7.5l5.9-30.3h7.8l-2.6,13
		c1.6-1.7,3.7-2.7,6.3-2.7c4.6,0,8,3.6,8,8.9C605.2,406.3,600.7,411.2,594.3,411.2 M593.1,404.6c2.2,0,3.9-1.7,3.9-4
		c0-2-1.3-3.3-3.2-3.3c-2.2,0-3.9,1.7-3.9,4C589.9,403.3,591.1,404.6,593.1,404.6"/>
	<polygon id="XMLID_3_" class="st0" points="619.1,380.3 613.2,410.7 605.5,410.7 611.4,380.3 	"/>
	<path id="XMLID_26_" class="st0" d="M628.7,411.2c-6.6,0-11.3-3.2-11.3-9.7c0-5.5,4.2-11,11.9-11c5.8,0,9.6,3.3,9.6,8.9
		c0,1.3-0.2,2.4-0.5,3.3h-13.7c0.7,1.7,2.4,2.3,4.4,2.3c2,0,3.6-0.4,5.7-1.3l2,5.7C633.9,410.8,631.6,411.2,628.7,411.2
		 M624.9,398.6h6.7c0-1.8-1.1-2.5-2.7-2.5C627.5,396.1,625.7,396.9,624.9,398.6"/>
	<path id="XMLID_1_" class="st0" d="M655.7,411.2c-8.5,0-15.1-6.4-15.1-14.7c0-8.8,7-15.6,15.9-15.6c8.4,0,14.8,6.4,14.8,14.7
		C671.4,404.5,664.5,411.2,655.7,411.2 M655.9,403.5c4.2,0,7.4-3.3,7.4-7.5c0-4.1-3.1-7.2-7.1-7.2c-4.2,0-7.5,3.2-7.5,7.3
		C648.7,400.3,651.8,403.5,655.9,403.5"/>
	<path id="XMLID_22_" class="st0" d="M678.8,410.7H671l3.8-19.5h7.3l-0.5,2.5c1.8-2.1,4-3,6.5-3c4.3,0,7,2.7,5.8,8.8l-2.2,11.3H684
		l2-9.8c0.5-2.4-0.4-3.4-2-3.4c-1.7,0-2.8,1.1-3.2,3.2L678.8,410.7z"/>
</g>
</svg>
